HIERARCHY
ROOT hip
{
  OFFSET 0.0 0.0 0.0
  CHANNELS 6 Xposition Yposition Zposition Zrotation Yrotation Xrotation
  JOINT torso
  {
    OFFSET 0.0 0.0 0.0
    CHANNELS 3 Zrotation Xrotation Yrotation
    JOINT neck
    {
      OFFSET -31.42098999999993 328.8025209999999 74.3554680000002
      CHANNELS 3 Zrotation Xrotation Yrotation
      JOINT head
      {
        OFFSET 3.3519900000001144 303.81732099999994 206.53942900000015
        CHANNELS 3 Zrotation Xrotation Yrotation
        End Site
        {
          OFFSET 0.0 0.0 0.0
        }
      }
    }
    JOINT left_collar
    {
      OFFSET -31.42098999999993 328.8025209999999 74.3554680000002
      CHANNELS 3 Zrotation Xrotation Yrotation
      JOINT left_upper_arm
      {
        OFFSET -124.490479 -8.162841999999841 8.226441000000023
        CHANNELS 3 Zrotation Xrotation Yrotation
        JOINT left_forearm
        {
          OFFSET -253.595764 -1.5758060000000569 105.0729980000001
          CHANNELS 3 Zrotation Xrotation Yrotation
          JOINT left_hand
          {
            OFFSET -269.48803699999996 0.1478270000000066 -55.346191999999974
            CHANNELS 3 Zrotation Xrotation Yrotation
            End Site
            {
              OFFSET 0.0 0.0 0.0
            }
          }
        }
      }
    }
    JOINT right_collar
    {
      OFFSET -31.42098999999993 328.8025209999999 74.3554680000002
      CHANNELS 3 Zrotation Xrotation Yrotation
      JOINT right_upper_arm
      {
        OFFSET 162.02484099999998 0.46441600000002836 2.2303470000001653
        CHANNELS 3 Zrotation Xrotation Yrotation
        JOINT right_forearm
        {
          OFFSET 240.01246700000004 -25.835875999999985 121.34179699999959
          CHANNELS 3 Zrotation Xrotation Yrotation
          JOINT right_hand
          {
            OFFSET 252.48539699999992 18.910399999999868 -67.53466800000001
            CHANNELS 3 Zrotation Xrotation Yrotation
            End Site
            {
              OFFSET 0.0 0.0 0.0
            }
          }
        }
      }
    }
  }
}
MOTION
Frames: 19
Frame Time: 0.01
-244.89945361069024 270.2396709449941 1409.7675904961488 3.1760396314238775 -3.1640836537386585 1.7476672753275986 -0.28958356491595844 2.708736802644689 0.31916888371489854 -2.7934321000057523 -1.679311869766781 1.9398764029129332 0.0 0.0 0.0 -1.1178814703778501 0.15783768521613029 -4.144693421449457 49.85534611308716 6.375519396317954 31.004555836317014 45.179484903235604 -4.6139664734966574 -12.163224664202446 0.0 0.0 0.0 -0.2878276657207053 0.002381881063632403 4.458236457092638 -47.308161801972545 6.637663759276812 -32.242488315338115 -53.349961634551796 -9.302309956267264 12.691839827287998 0.0 0.0 0.0
-244.95378441512176 270.1880291691465 1409.7020805196983 3.180452545349351 -3.184089267185248 1.785725379363609 -0.2884282373934376 2.72064278023495 0.3200556962095721 -2.783365206150886 -1.6775620759208207 1.9329070426983286 0.0 0.0 0.0 -1.1215211781511631 0.1587384877774229 -4.1674255680807955 49.858232498694186 6.376763746904831 31.002852980111943 45.15149406705912 -4.633311512407478 -12.109410491081599 0.0 0.0 0.0 -0.27512716971376827 0.0017245315577811746 4.432054273666357 -47.32713716285714 6.647664259248316 -32.232879725611674 -53.32356524962906 -9.32197076049221 12.634446371984007 0.0 0.0 0.0
-245.00936441874742 270.13595146230557 1409.6363939735736 3.184377668761541 -3.2037361793884047 1.8232069287125487 -0.2870011153110691 2.7319951719354134 0.32083544273283865 -2.7738063452792647 -1.6754834838781127 1.9262797346669034 0.0 0.0 0.0 -1.125096325984213 0.15957017328880155 -4.188830399308206 49.86128292547432 6.378174559948169 31.000852918756358 45.12390185918916 -4.652441190492681 -12.056151872222069 0.0 0.0 0.0 -0.26200694902759536 0.0010504447415326458 4.406942143688981 -47.346371809564076 6.657581304405158 -32.22353855063858 -53.2975837840337 -9.341427992827139 12.577641964757673 0.0 0.0 0.0
-245.06628002121278 270.08332444116826 1409.5700487107886 3.187699083937061 -3.222877555080497 1.8597829072674352 -0.28527955277957734 2.742578321247496 0.321483251560643 -2.76498649854469 -1.6730511459206692 1.9201528680812403 0.0 0.0 0.0 -1.1284702557855641 0.16031999819068005 -4.208425883202249 49.864461549785446 6.379774964923544 30.998496010478554 45.09690819055044 -4.671144623885949 -12.004010918543173 0.0 0.0 0.0 -0.2485025155490428 0.00036092404032899333 4.383548444881849 -47.36575776594364 6.6672407400350595 -32.21472646092958 -53.27228791840821 -9.360427471810262 12.522143750688695 0.0 0.0 0.0
-245.12459738160024 270.0300020277202 1409.5024849073725 3.190313057623068 -3.241394187222568 1.8951387024902495 -0.28325006968439714 2.752199157190073 0.3219782218970978 -2.7571266707670268 -1.670246194801879 1.9146780952646278 0.0 0.0 0.0 -1.1315071827230143 0.16097623387189233 -4.225747326835299 49.86772734634086 6.381589574390767 30.995717894645697 45.070701892654334 -4.68922395376598 -11.953517731600359 0.0 0.0 0.0 -0.23466382555923415 -0.00034233341445947266 4.362508423354379 -47.3851802217181 6.676472535508145 -32.20669435745339 -53.24792275376816 -9.37872611414871 12.468634616465238 0.0 0.0 0.0
-245.18434802859878 269.975811295734 1409.4330792720707 3.1921320062838046 -3.2591991149660866 1.9289800887644744 -0.280910062000604 2.760694171895612 0.32230442162333417 -2.7504311379423285 -1.6670580228621512 1.9099957317572616 0.0 0.0 0.0 -1.1340765217106055 0.16152842569117773 -4.240360675246844 49.87103489480029 6.383643734250361 30.992451308437563 45.04545680676865 -4.706499128733954 -11.905157555990822 0.0 0.0 0.0 -0.22055728620140802 -0.0010571343108995265 4.344426820764044 -47.404517253015285 6.68511505688118 -32.19967473549776 -53.22470084612115 -9.396097471782438 12.417746690265178 0.0 0.0 0.0
-245.24551452853305 269.9205588661648 1409.3611600578981 3.193088033830544 -3.2762408427999232 1.961038562436955 -0.27826924996153035 2.767935092898375 0.3224517109402363 -2.7450812121574506 -1.6634865825097012 1.906230516205433 0.0 0.0 0.0 -1.1360564799226534 0.16196765854912049 -4.2518748133234325 49.87433494314718 6.385962680978459 30.988628026154675 45.02132755046995 -4.722812159578172 -11.85935901384926 0.0 0.0 0.0 -0.20626739085624396 -0.0017806844309180855 4.329861813474833 -47.423639906155685 6.693019142999616 -32.19387458481947 -53.202796118350896 -9.412336745167957 12.370046326661202 0.0 0.0 0.0
-245.30801680770844 269.86403757588516 1409.2860222426705 3.1931359013573672 -3.292505026088824 1.9910759682552117 -0.2753507839357889 2.773833011711015 0.32241635413411746 -2.741229722163537 -1.6595447216560022 1.9034878650142177 0.0 0.0 0.0 -1.137336777447494 0.16228682908462483 -4.259952513949991 49.877574727607325 6.388570626495297 30.984180871115075 44.99844508572279 -4.73803065566161 -11.816483937163268 0.0 0.0 0.0 -0.19189779532056825 -0.002509488597214541 4.319310765711911 -47.442412701840325 6.700051809301033 -32.18946915803283 -53.18233899059505 -9.427265115016795 12.326021146727088 0.0 0.0 0.0
-245.37169973477785 269.80603313683184 1409.2069422834609 3.1922553063753685 -3.308014592285928 2.0188884104486275 -0.2721919355189357 2.7783408318494276 0.3222013924821181 -2.7389963641185493 -1.6552604594679128 1.9018507265061293 0.0 0.0 0.0 -1.1378204683925646 0.1624809201956758 -4.26431979108177 49.88069809267752 6.391489787242632 30.979045778769873 44.976912297740085 -4.752050439946841 -11.776819372521269 0.0 0.0 0.0 -0.17757167529585777 -0.003239262012716402 4.313198169531358 -47.46069452838324 6.7060993790470285 -32.186596942006005 -53.163413086687896 -9.4407332106176 12.286069772644117 0.0 0.0 0.0
-245.43632254971337 269.74633049440325 1409.123191921734 3.1904523619808067 -3.322828351025412 2.044309455490387 -0.26884431139638126 2.781453988044655 0.32181676123865965 -2.738464041944877 -1.6506791050387084 1.9013771150578067 0.0 0.0 0.0 -1.137424934408122 0.1625472669474252 -4.264773486526695 49.88364551505308 6.3947393757983955 30.9731639050424 44.95679984024241 -4.764797075949211 -11.740572262968874 0.0 0.0 0.0 -0.16343125984062992 -0.0039648587749666064 4.311866032482796 -47.47833982654112 6.71106985599013 -32.18535611112014 -53.14605382373781 -9.452623534704573 12.250494869904559 0.0 0.0 0.0
-245.50155066550775 269.68471959549544 1409.034050624617 3.187760177009676 -3.3370382091915456 2.0672126177197394 -0.26537353851810286 2.783209460526453 0.32127914214127246 -2.739676288906469 -1.6458651203867274 1.902098386329228 0.0 0.0 0.0 -1.1360822001177344 0.16248579555792528 -4.261186946456903 49.88635417977054 6.3983345832571645 30.966483767368707 44.9381425069025 -4.776226221744274 -11.707867117416507 0.0 0.0 0.0 -0.14963647716351988 -0.004680223505408261 4.315566874423176 -47.49519996165748 6.714894406660673 -32.185802640868175 -53.130249083673185 -9.46285171079499 12.219499948635468 0.0 0.0 0.0
-245.56695025717883 269.621000298739 1408.9388163932194 3.184238451494899 -3.3507651509120446 2.087513083522081 -0.26185838177442033 2.783683164326946 0.32061155019648474 -2.7426358395372334 -1.6409036275768163 1.9040182989349321 0.0 0.0 0.0 -1.1337387652690751 0.1622992107836121 -4.253513635939028 49.88875827626633 6.402285598431578 30.958963375021963 44.92093636475694 -4.786322825991749 -11.678746728761482 0.0 0.0 0.0 -0.13636266633521496 -0.005378373673630108 4.324459409270856 -47.511124729736096 6.717527899344844 -32.18795014199172 -53.115942025456135 -9.471366501026587 12.193190108933898 0.0 0.0 0.0
-245.6319858940694 269.55498620545234 1408.8368148385214 3.1799720236092526 -3.364154172131716 2.1051685850643387 -0.25838927246732485 2.7829858382941555 0.31984266074557277 -2.7473044013561716 -1.6359014584617675 1.9071128939821504 0.0 0.0 0.0 -1.1303551588761391 0.16199310303401335 -4.241788512578827 49.89078967385646 6.406596732208339 30.950572256568165 44.9051368492852 -4.7950992702643305 -11.653175770840939 0.0 0.0 0.0 -0.12379732016321741 -0.0060514220884045145 4.338606917788 -47.52596401681547 6.718948531442586 -32.19177135743539 -53.103035949072606 -9.478148636706909 12.17157661270912 0.0 0.0 0.0
-245.6960212882116 269.48650725294107 1408.727406590316 3.1750683396855557 -3.3773683830472083 2.1201792974863585 -0.25506624984919235 2.7812576002100067 0.31900589131072615 -2.7536036541209503 -1.6309876469590423 1.9113312086220968 0.0 0.0 0.0 -1.1259054001276518 0.16157594623596766 -4.226126961561939 49.892379102543956 6.411265735451959 30.94129324034541 44.89065797882098 -4.80259262679779 -11.63104692794131 0.0 0.0 0.0 -0.11213585326354658 -0.006690649745188224 4.35797826121233 -47.539569686880185 6.719156651874463 -32.197201157231916 -53.09140098382659 -9.483208588284231 12.15458488765227 0.0 0.0 0.0
-245.75832305761165 269.41541098338905 1408.6099932252973 3.1696538673783863 -3.390582516848193 2.132586626729308 -0.2519963466826668 2.7786613807064064 0.3181382628278797 -2.7614174746681384 -1.6263132709754236 1.9165968190902605 0.0 0.0 0.0 -1.1203765059838757 0.16105896205881143 -4.206721116731378 49.89345790881117 6.416283409262446 30.931123805007275 44.87737279694008 -4.808861239175975 -11.612189094638515 0.0 0.0 0.0 -0.10157644293086927 -0.00728663806596541 4.382451432422287 -47.55179779219655 6.718172940848061 -32.20414077815185 -53.08088225418595 -9.486583465520761 12.142065350241005 0.0 0.0 0.0
-245.81806727024153 269.34156248011647 1408.484021939882 3.163869526907548 -3.403976113289425 2.1424707962026472 -0.24929047689197967 2.7753755039652375 0.3172790757653579 -2.770595343893753 -1.6220505685880684 1.9228101802130715 0.0 0.0 0.0 -1.1137681250118905 0.16045583584476575 -4.183833476351171 49.89396038079827 6.421633602529687 30.920076802110827 44.8651150959339 -4.813980848971803 -11.596377121233003 0.0 0.0 0.0 -0.09231406273463828 -0.007829466504158472 4.411819472924589 -47.56251118086448 6.716036143342029 -32.21246298899952 -53.071309082801314 -9.488333281943902 12.133806279877115 0.0 0.0 0.0
-245.87434845613797 269.2648430509077 1408.3489891419792 3.1578652696779623 -3.417726678989807 2.1499472281135885 -0.24705990502890265 2.771585747098148 0.31646844748226877 -2.7809568408643344 -1.618391285359099 1.9298516933815453 0.0 0.0 0.0 -1.1060923130597635 0.15978228304390268 -4.157787864738728 49.89382655214292 6.427293673498652 30.908180364331276 44.85368241567218 -4.818040489493285 -11.583342559825388 0.0 0.0 0.0 -0.0845339063224718 -0.00830897689629045 4.445798486700511 -47.57158253140552 6.71280056754518 -32.22201781935856 -53.06250472741345 -9.488536843397311 12.129547881134016 0.0 0.0 0.0
-245.92619073992242 269.18514783043327 1408.2044430288643 3.151793985310876 -3.432003156925944 2.15516182965893 -0.24541239560427736 2.767477274149085 0.3157457675828165 -2.792297074280117 -1.6155442556843225 1.937585398293723 0.0 0.0 0.0 -1.097373412023665 0.15905547965655742 -4.128957971873004 49.89300531546769 6.433235462024955 30.89547685089462 44.8428402511202 -4.821138353139138 -11.572784878197943 0.0 0.0 0.0 -0.07840446654601423 -0.008715100464442538 4.484037364384738 -47.578897788799466 6.708533555633301 -32.232638475016394 -53.05429612089603 -9.487287527701469 12.12899664035236 0.0 0.0 0.0
-245.97256072854574 269.10238255644106 1408.0499851161728 3.145804968179172 -3.4469600561661697 2.158285409869272 -0.244448159982626 2.7632268890451344 0.3151481373293684 -2.8043928513824445 -1.6137322719035463 1.945863150575394 0.0 0.0 0.0 -1.0876479597100506 0.15829338373145027 -4.097753899293626 49.89145762392644 6.43942677952828 30.882020747572597 44.83232733792788 -4.823377813964322 -11.56438264734623 0.0 0.0 0.0 -0.07407058197688797 -0.009038237682939971 4.526128721542765 -47.584359921447664 6.7033131076082775 -32.24414708887716 -53.04652309521336 -9.484689204562692 12.131839132838055 0.0 0.0 0.0
